<svg width="16" height="16" viewBox="0 0 16 16" fill="none" xmlns="http://www.w3.org/2000/svg">
<g clip-path="url(#clip0)">
<path d="M15.7241 13.2415H0.275874C0.123531 13.2415 0 13.118 0 12.9657V3.03466C0 2.88232 0.123531 2.75879 0.275874 2.75879H15.7241C15.8764 2.75879 16 2.88232 16 3.03466V12.9657C15.9999 13.118 15.8764 13.2415 15.7241 13.2415Z" fill="#41479B"/>
<path d="M15.9999 3.03466C15.9999 2.88232 15.8764 2.75879 15.7241 2.75879H14.4898L9.37924 6.10712V2.75879H6.62063V6.10712L1.51006 2.75879H0.275874C0.123531 2.75879 0 2.88232 0 3.03466V3.74813L4.38464 6.62084H0V9.37945H4.38464L0 12.2522V12.9657C0 13.118 0.123531 13.2415 0.275874 13.2415H1.51009L6.62069 9.8932V13.2415H9.37931V9.8932L14.4899 13.2415H15.7241C15.8765 13.2415 16 13.118 16 12.9657V12.2522L11.6154 9.37948H15.9999V6.62087H11.6153L15.9999 3.74813V3.03466Z" fill="#F5F5F5"/>
<path d="M15.9999 7.17258H8.82756V2.75879H7.17238V7.17258H0V8.82773H7.17238V13.2415H8.82756V8.82773H15.9999V7.17258Z" fill="#FF4B55"/>
<path d="M5.5921 9.37964L0.0078125 13.0045C0.0273437 13.1377 0.137187 13.2417 0.275843 13.2417H0.65581L6.60547 9.37967H5.5921V9.37964Z" fill="#FF4B55"/>
<path d="M10.8247 9.37964H9.81128L15.7523 13.236C15.8908 13.2212 16.0001 13.1082 16.0001 12.9658V12.739L10.8247 9.37964Z" fill="#FF4B55"/>
<path d="M0 3.33939L5.05557 6.62105H6.06894L0.160718 2.78589C0.0663435 2.82973 0 2.92395 0 3.03486V3.33939Z" fill="#FF4B55"/>
<path d="M10.3925 6.62083L15.9902 2.98719C15.967 2.85838 15.8595 2.75879 15.7239 2.75879H15.3287L9.37915 6.62083H10.3925Z" fill="#FF4B55"/>
</g>
<defs>
<clipPath id="clip0">
<rect width="16" height="16" fill="white"/>
</clipPath>
</defs>
</svg>
